# xmcd CD database file
#
# Track frame offsets:
#	150
#	10357
#	21487
#	32694
#	43524
#	54506
#	67055
#	79685
#	95165
#	105126
#	118000
#	129689
#
# Disc length: 1907 seconds
#
# Revision: 4
# Processed by: cddbd v1.5.2PL0 Copyright (c) Steve Scherf et al.
# Submitted via: CDex 1.94
#
DISCID=9e07710c
DTITLE=Howlin' Wolf - Howlin' Wolf
DYEAR=1962
DGENRE=Blues
TTITLE0=Shake For Me
TTITLE1=Red Rooster
TTITLE2=You'll Be Mine
TTITLE3=Who's Been Talkin'
TTITLE4=Wang Dang Doodle
TTITLE5=Little Baby
TTITLE6=Spoonful
TTITLE7=Goin' Down Slow
TTITLE8=Down In The Bottom
TTITLE9=Back Door Man
TTITLE10=Hawlin' For My Baby
TTITLE11=Tell Me
EXTD=\n YEAR: 1962
EXTT0=
EXTT1=
EXTT2=
EXTT3=
EXTT4=
EXTT5=
EXTT6=
EXTT7=
EXTT8=
EXTT9=
EXTT10=
EXTT11=
PLAYORDER=
